# xmcd CD database file
#
# Track frame offsets:
#	150
#	1557
#	2920
#	4477
#	5561
#	8482
#	11379
#	18117
#	19294
#	22522
#	24107
#	25683
#	31572
#	34182
#	35757
#	37323
#	38777
#	40267
#	41050
#	45825
#	52875
#	54086
#	55257
#	56698
#	57817
#	59904
#	61775
#	63618
#	64567
#	65443
#	66320
#	68364
#	70967
#	73594
#	75021
#	78289
#	83245
#	88336
#	89298
#	90497
#	95177
#	100042
#	104406
#	105034
#	105669
#	108259
#	112315
#	116444
#	117342
#	118278
#	121091
#	124045
#	125876
#	130624
#	145396
#	155723
#	161689
#	175580
#	187617
#	200646
#
# Disc length: 2901 seconds
#
# Revision: 0
# Processed by: cddbd v1.5.1PL2 Copyright (c) Steve Scherf et al.
# Submitted via: CDex 1.51
#
DISCID=070b533c
DTITLE=斉藤 修 - なんちゃってジャズ・ピアノ　らくらく実践編
DYEAR=2004
DGENRE=Jazz
TTITLE0=ジャジーな演奏はここからスタート！ EX-1
TTITLE1=ジャジーな演奏はここからスタート！ EX-2
TTITLE2=和音を美しく響かせてもっとジャジーに EX-1
TTITLE3=和音を美しく響かせてもっとジャジーに EX-2
TTITLE4=左手でコードを弾いてみよう EX-1
TTITLE5=左手でもっと複雑なコードを弾こう EX-1
TTITLE6=「ダニー・ボーイ」
TTITLE7=左手と右手を組み合わせてもっとジャジーに EX-1
TTITLE8=左手と右手を組み合わせてもっとジャジーに EX-2
TTITLE9=テンション音は「気持ち良ければヨシ！」 EX-1
TTITLE10=テンション音は「気持ち良ければヨシ！」 EX-2
TTITLE11=「ムーン・リバー」
TTITLE12=メロディを崩して弾くにはどうする？ EX-1
TTITLE13=フェイクがいつのまにかアドリブ・ソロ？ EX-1
TTITLE14=フェイクがいつのまにかアドリブ・ソロ？ EX-2
TTITLE15=ジャズ度がアップする半音の動き EX-1
TTITLE16=ジャズ度がアップする半音の動き EX-2
TTITLE17=ブルーノートってどんな音？ EX-1
TTITLE18=ブルーノートってどんな音？ EX-2
TTITLE19=「ジャジー・ブルース」
TTITLE20=カッコつけたいならこのフレーズ EX-1
TTITLE21=カッコつけたいならこのフレーズ EX-2
TTITLE22=ジャズっぽさの秘訣、13thコードのヒミツ EX-1
TTITLE23=ジャズっぽさの秘訣、13thコードのヒミツ EX-2
TTITLE24=かっこいいコード進行を見つける必殺技 EX-1
TTITLE25=かっこいいコード進行を見つける必殺技 EX-2
TTITLE26=クラシックの中にジャズの響きを見つける！ EX-1
TTITLE27=クラシックの中にジャズの響きを見つける！ EX-2
TTITLE28=楽しく騒ぐニューオリンズ・ジャズ EX-1
TTITLE29=楽しく騒ぐニューオリンズ・ジャズ EX-2
TTITLE30=「トーキョー・ストンプ」
TTITLE31=「ドクター・ドクター」
TTITLE32=「ドクター・ドクター」（練習用カラオケ）
TTITLE33=ニューヨーク・スタイルのホットなジャズ EX-1
TTITLE34=「ブルー・ネオン」
TTITLE35=「ケリー・バップ」
TTITLE36=「ケリー・バップ」（練習用カラオケ）
TTITLE37=魂のピアノが鳴り響くゴスペル＆ブルース EX-1
TTITLE38=魂のピアノが鳴り響くゴスペル＆ブルース EX-2
TTITLE39=「Gブルース」
TTITLE40=「Gブルース」（練習用カラオケ）
TTITLE41=「クライ・クライ」
TTITLE42=サンバとジャズの出会いが生んだボサノバ EX-1
TTITLE43=サンバとジャズの出会いが生んだボサノバ EX-2
TTITLE44=「ソー・グッド」
TTITLE45=「オリジャ」
TTITLE46=「オリジャ」（練習用カラオケ）
TTITLE47=まとめ：ジャズからソウル、そしてポップスへ EX-1
TTITLE48=まとめ：ジャズからソウル、そしてポップスへ EX-2
TTITLE49=「キープ・ザ・クール」
TTITLE50=「キープ・ザ・クール」（練習用カラオケ）
TTITLE51=「グレープ・ジュース」
TTITLE52=「サッド・ソング」
TTITLE53=「枯葉」
TTITLE54=「アズ・タイム・ゴーズ・バイ」
TTITLE55=「アメイジング・グレース」
TTITLE56=「イパネマの娘」
TTITLE57=「いつも何度でも」
TTITLE58=「Everything」
TTITLE59=「最初から今まで」
EXTD=YEAR: 2004
EXTT0=
EXTT1=
EXTT2=
EXTT3=
EXTT4=
EXTT5=
EXTT6=
EXTT7=
EXTT8=
EXTT9=
EXTT10=
EXTT11=
EXTT12=
EXTT13=
EXTT14=
EXTT15=
EXTT16=
EXTT17=
EXTT18=
EXTT19=
EXTT20=
EXTT21=
EXTT22=
EXTT23=
EXTT24=
EXTT25=
EXTT26=
EXTT27=
EXTT28=
EXTT29=
EXTT30=
EXTT31=
EXTT32=
EXTT33=
EXTT34=
EXTT35=
EXTT36=
EXTT37=
EXTT38=
EXTT39=
EXTT40=
EXTT41=
EXTT42=
EXTT43=
EXTT44=
EXTT45=
EXTT46=
EXTT47=
EXTT48=
EXTT49=
EXTT50=
EXTT51=
EXTT52=
EXTT53=
EXTT54=
EXTT55=
EXTT56=
EXTT57=
EXTT58=
EXTT59=
PLAYORDER=
